<mxfile host="app.diagrams.net" agent="Mozilla/5.0 (Windows NT 10.0; Win64; x64) AppleWebKit/537.36 (KHTML, like Gecko) Chrome/140.0.0.0 Safari/537.36" version="28.2.5" pages="2">
  <diagram name="Class" id="7Gt9n-Z7SV_CwtmudGsf">
    <mxGraphModel dx="3032" dy="2338" grid="1" gridSize="10" guides="1" tooltips="1" connect="1" arrows="1" fold="1" page="1" pageScale="1" pageWidth="827" pageHeight="1169" math="0" shadow="0">
      <root>
        <mxCell id="0" />
        <mxCell id="1" parent="0" />
        <mxCell id="YAoQZZcqndYcD_oNCYfi-75" value="Model" style="verticalAlign=top;align=left;spacingTop=8;spacingLeft=2;spacingRight=12;shape=cube;size=10;direction=south;fontStyle=4;html=1;whiteSpace=wrap;" parent="1" vertex="1">
          <mxGeometry x="-90" y="-16" width="1600" height="730" as="geometry" />
        </mxCell>
        <mxCell id="YAoQZZcqndYcD_oNCYfi-77" value="Config" style="verticalAlign=top;align=left;spacingTop=8;spacingLeft=2;spacingRight=12;shape=cube;size=10;direction=south;fontStyle=4;html=1;whiteSpace=wrap;" parent="1" vertex="1">
          <mxGeometry x="870" y="370" width="590" height="320" as="geometry" />
        </mxCell>
        <mxCell id="YAoQZZcqndYcD_oNCYfi-76" value="Domain" style="verticalAlign=top;align=left;spacingTop=8;spacingLeft=2;spacingRight=12;shape=cube;size=10;direction=south;fontStyle=4;html=1;whiteSpace=wrap;" parent="1" vertex="1">
          <mxGeometry x="870" y="24" width="590" height="320" as="geometry" />
        </mxCell>
        <mxCell id="YAoQZZcqndYcD_oNCYfi-15" value="PresentationApiRepository" style="swimlane;fontStyle=1;align=center;verticalAlign=top;childLayout=stackLayout;horizontal=1;startSize=26;horizontalStack=0;resizeParent=1;resizeParentMax=0;resizeLast=0;collapsible=1;marginBottom=0;whiteSpace=wrap;html=1;" parent="1" vertex="1">
          <mxGeometry x="250" y="282" width="250" height="86" as="geometry" />
        </mxCell>
        <mxCell id="YAoQZZcqndYcD_oNCYfi-16" value="+ field: type" style="text;strokeColor=none;fillColor=none;align=left;verticalAlign=top;spacingLeft=4;spacingRight=4;overflow=hidden;rotatable=0;points=[[0,0.5],[1,0.5]];portConstraint=eastwest;whiteSpace=wrap;html=1;" parent="YAoQZZcqndYcD_oNCYfi-15" vertex="1">
          <mxGeometry y="26" width="250" height="26" as="geometry" />
        </mxCell>
        <mxCell id="YAoQZZcqndYcD_oNCYfi-17" value="" style="line;strokeWidth=1;fillColor=none;align=left;verticalAlign=middle;spacingTop=-1;spacingLeft=3;spacingRight=3;rotatable=0;labelPosition=right;points=[];portConstraint=eastwest;strokeColor=inherit;" parent="YAoQZZcqndYcD_oNCYfi-15" vertex="1">
          <mxGeometry y="52" width="250" height="8" as="geometry" />
        </mxCell>
        <mxCell id="YAoQZZcqndYcD_oNCYfi-18" value="+ &amp;nbsp;LoadAsync(): IEnumerable&amp;lt;Presentation&amp;gt;" style="text;strokeColor=none;fillColor=none;align=left;verticalAlign=top;spacingLeft=4;spacingRight=4;overflow=hidden;rotatable=0;points=[[0,0.5],[1,0.5]];portConstraint=eastwest;whiteSpace=wrap;html=1;" parent="YAoQZZcqndYcD_oNCYfi-15" vertex="1">
          <mxGeometry y="60" width="250" height="26" as="geometry" />
        </mxCell>
        <mxCell id="YAoQZZcqndYcD_oNCYfi-20" value="«interface»&lt;br&gt;&lt;b&gt;IPresentationReader&lt;/b&gt;" style="html=1;whiteSpace=wrap;" parent="1" vertex="1">
          <mxGeometry x="330" y="78" width="190" height="50" as="geometry" />
        </mxCell>
        <mxCell id="YAoQZZcqndYcD_oNCYfi-25" value="&lt;b&gt;Presentation&lt;/b&gt;" style="swimlane;fontStyle=0;childLayout=stackLayout;horizontal=1;startSize=26;fillColor=none;horizontalStack=0;resizeParent=1;resizeParentMax=0;resizeLast=0;collapsible=1;marginBottom=0;whiteSpace=wrap;html=1;" parent="1" vertex="1">
          <mxGeometry x="930" y="78" width="170" height="182" as="geometry" />
        </mxCell>
        <mxCell id="YAoQZZcqndYcD_oNCYfi-26" value="+ Id: string" style="text;strokeColor=none;fillColor=none;align=left;verticalAlign=top;spacingLeft=4;spacingRight=4;overflow=hidden;rotatable=0;points=[[0,0.5],[1,0.5]];portConstraint=eastwest;whiteSpace=wrap;html=1;" parent="YAoQZZcqndYcD_oNCYfi-25" vertex="1">
          <mxGeometry y="26" width="170" height="26" as="geometry" />
        </mxCell>
        <mxCell id="YAoQZZcqndYcD_oNCYfi-27" value="+ Title: string" style="text;strokeColor=none;fillColor=none;align=left;verticalAlign=top;spacingLeft=4;spacingRight=4;overflow=hidden;rotatable=0;points=[[0,0.5],[1,0.5]];portConstraint=eastwest;whiteSpace=wrap;html=1;" parent="YAoQZZcqndYcD_oNCYfi-25" vertex="1">
          <mxGeometry y="52" width="170" height="26" as="geometry" />
        </mxCell>
        <mxCell id="YAoQZZcqndYcD_oNCYfi-28" value="+ ThumbnailUrl: string" style="text;strokeColor=none;fillColor=none;align=left;verticalAlign=top;spacingLeft=4;spacingRight=4;overflow=hidden;rotatable=0;points=[[0,0.5],[1,0.5]];portConstraint=eastwest;whiteSpace=wrap;html=1;" parent="YAoQZZcqndYcD_oNCYfi-25" vertex="1">
          <mxGeometry y="78" width="170" height="26" as="geometry" />
        </mxCell>
        <mxCell id="YAoQZZcqndYcD_oNCYfi-29" value="+ Privacy: Privacy" style="text;strokeColor=none;fillColor=none;align=left;verticalAlign=top;spacingLeft=4;spacingRight=4;overflow=hidden;rotatable=0;points=[[0,0.5],[1,0.5]];portConstraint=eastwest;whiteSpace=wrap;html=1;" parent="YAoQZZcqndYcD_oNCYfi-25" vertex="1">
          <mxGeometry y="104" width="170" height="26" as="geometry" />
        </mxCell>
        <mxCell id="YAoQZZcqndYcD_oNCYfi-30" value="+ LastModified: DateTime" style="text;strokeColor=none;fillColor=none;align=left;verticalAlign=top;spacingLeft=4;spacingRight=4;overflow=hidden;rotatable=0;points=[[0,0.5],[1,0.5]];portConstraint=eastwest;whiteSpace=wrap;html=1;" parent="YAoQZZcqndYcD_oNCYfi-25" vertex="1">
          <mxGeometry y="130" width="170" height="26" as="geometry" />
        </mxCell>
        <mxCell id="YAoQZZcqndYcD_oNCYfi-32" value="+ Author: Author" style="text;strokeColor=none;fillColor=none;align=left;verticalAlign=top;spacingLeft=4;spacingRight=4;overflow=hidden;rotatable=0;points=[[0,0.5],[1,0.5]];portConstraint=eastwest;whiteSpace=wrap;html=1;" parent="YAoQZZcqndYcD_oNCYfi-25" vertex="1">
          <mxGeometry y="156" width="170" height="26" as="geometry" />
        </mxCell>
        <mxCell id="YAoQZZcqndYcD_oNCYfi-33" value="&lt;p style=&quot;margin:0px;margin-top:4px;text-align:center;text-decoration:underline;&quot;&gt;&lt;b&gt;Privacy:Enum&lt;/b&gt;&lt;/p&gt;&lt;hr size=&quot;1&quot; style=&quot;border-style:solid;&quot;&gt;&lt;p style=&quot;margin:0px;margin-left:8px;&quot;&gt;Public&lt;br&gt;Private&lt;br&gt;Hidden&lt;/p&gt;" style="verticalAlign=top;align=left;overflow=fill;html=1;whiteSpace=wrap;" parent="1" vertex="1">
          <mxGeometry x="1200" y="126" width="160" height="90" as="geometry" />
        </mxCell>
        <mxCell id="YAoQZZcqndYcD_oNCYfi-34" value="&lt;b&gt;Author&lt;/b&gt;" style="swimlane;fontStyle=0;childLayout=stackLayout;horizontal=1;startSize=26;fillColor=none;horizontalStack=0;resizeParent=1;resizeParentMax=0;resizeLast=0;collapsible=1;marginBottom=0;whiteSpace=wrap;html=1;" parent="1" vertex="1">
          <mxGeometry x="1200" y="236" width="140" height="78" as="geometry" />
        </mxCell>
        <mxCell id="YAoQZZcqndYcD_oNCYfi-35" value="+ Id: string" style="text;strokeColor=none;fillColor=none;align=left;verticalAlign=top;spacingLeft=4;spacingRight=4;overflow=hidden;rotatable=0;points=[[0,0.5],[1,0.5]];portConstraint=eastwest;whiteSpace=wrap;html=1;" parent="YAoQZZcqndYcD_oNCYfi-34" vertex="1">
          <mxGeometry y="26" width="140" height="26" as="geometry" />
        </mxCell>
        <mxCell id="YAoQZZcqndYcD_oNCYfi-36" value="+ Name: string" style="text;strokeColor=none;fillColor=none;align=left;verticalAlign=top;spacingLeft=4;spacingRight=4;overflow=hidden;rotatable=0;points=[[0,0.5],[1,0.5]];portConstraint=eastwest;whiteSpace=wrap;html=1;" parent="YAoQZZcqndYcD_oNCYfi-34" vertex="1">
          <mxGeometry y="52" width="140" height="26" as="geometry" />
        </mxCell>
        <mxCell id="YAoQZZcqndYcD_oNCYfi-44" value="PresentationFal&lt;span style=&quot;background-color: transparent; color: light-dark(rgb(0, 0, 0), rgb(255, 255, 255));&quot;&gt;lbackRepository&lt;/span&gt;" style="swimlane;fontStyle=1;align=center;verticalAlign=top;childLayout=stackLayout;horizontal=1;startSize=26;horizontalStack=0;resizeParent=1;resizeParentMax=0;resizeLast=0;collapsible=1;marginBottom=0;whiteSpace=wrap;html=1;" parent="1" vertex="1">
          <mxGeometry x="560" y="392" width="282.5" height="112" as="geometry" />
        </mxCell>
        <mxCell id="YAoQZZcqndYcD_oNCYfi-45" value="+&amp;nbsp;&lt;span style=&quot;text-align: center;&quot;&gt;PresentationApiRepo&lt;/span&gt;:&amp;nbsp;&lt;span style=&quot;text-align: center;&quot;&gt;IPresentationReader&lt;/span&gt;" style="text;strokeColor=none;fillColor=none;align=left;verticalAlign=top;spacingLeft=4;spacingRight=4;overflow=hidden;rotatable=0;points=[[0,0.5],[1,0.5]];portConstraint=eastwest;whiteSpace=wrap;html=1;" parent="YAoQZZcqndYcD_oNCYfi-44" vertex="1">
          <mxGeometry y="26" width="282.5" height="26" as="geometry" />
        </mxCell>
        <mxCell id="YAoQZZcqndYcD_oNCYfi-51" value="+ &lt;span style=&quot;text-align: center;&quot;&gt;PresentationFileRepo&lt;/span&gt;:&amp;nbsp;&lt;span style=&quot;text-align: center;&quot;&gt;IPresentationReader&lt;/span&gt;" style="text;strokeColor=none;fillColor=none;align=left;verticalAlign=top;spacingLeft=4;spacingRight=4;overflow=hidden;rotatable=0;points=[[0,0.5],[1,0.5]];portConstraint=eastwest;whiteSpace=wrap;html=1;" parent="YAoQZZcqndYcD_oNCYfi-44" vertex="1">
          <mxGeometry y="52" width="282.5" height="26" as="geometry" />
        </mxCell>
        <mxCell id="YAoQZZcqndYcD_oNCYfi-46" value="" style="line;strokeWidth=1;fillColor=none;align=left;verticalAlign=middle;spacingTop=-1;spacingLeft=3;spacingRight=3;rotatable=0;labelPosition=right;points=[];portConstraint=eastwest;strokeColor=inherit;" parent="YAoQZZcqndYcD_oNCYfi-44" vertex="1">
          <mxGeometry y="78" width="282.5" height="8" as="geometry" />
        </mxCell>
        <mxCell id="YAoQZZcqndYcD_oNCYfi-47" value="+ &amp;nbsp;LoadAsync(): IEnumerable&amp;lt;Presentation&amp;gt;" style="text;strokeColor=none;fillColor=none;align=left;verticalAlign=top;spacingLeft=4;spacingRight=4;overflow=hidden;rotatable=0;points=[[0,0.5],[1,0.5]];portConstraint=eastwest;whiteSpace=wrap;html=1;" parent="YAoQZZcqndYcD_oNCYfi-44" vertex="1">
          <mxGeometry y="86" width="282.5" height="26" as="geometry" />
        </mxCell>
        <mxCell id="YAoQZZcqndYcD_oNCYfi-53" value="ViewModel" style="verticalAlign=top;align=left;spacingTop=8;spacingLeft=2;spacingRight=12;shape=cube;size=10;direction=south;fontStyle=4;html=1;whiteSpace=wrap;" parent="1" vertex="1">
          <mxGeometry x="-90" y="-360" width="1600" height="310" as="geometry" />
        </mxCell>
        <mxCell id="YAoQZZcqndYcD_oNCYfi-54" value="«interface»&lt;br&gt;&lt;b&gt;IPresentationWriter&lt;/b&gt;" style="html=1;whiteSpace=wrap;" parent="1" vertex="1">
          <mxGeometry x="25" y="78" width="190" height="50" as="geometry" />
        </mxCell>
        <mxCell id="YAoQZZcqndYcD_oNCYfi-55" value="&lt;b&gt;Config&lt;/b&gt;" style="swimlane;fontStyle=0;childLayout=stackLayout;horizontal=1;startSize=26;fillColor=none;horizontalStack=0;resizeParent=1;resizeParentMax=0;resizeLast=0;collapsible=1;marginBottom=0;whiteSpace=wrap;html=1;" parent="1" vertex="1">
          <mxGeometry x="1180" y="447" width="180" height="156" as="geometry" />
        </mxCell>
        <mxCell id="YAoQZZcqndYcD_oNCYfi-56" value="+ Endpoint: string" style="text;strokeColor=none;fillColor=none;align=left;verticalAlign=top;spacingLeft=4;spacingRight=4;overflow=hidden;rotatable=0;points=[[0,0.5],[1,0.5]];portConstraint=eastwest;whiteSpace=wrap;html=1;" parent="YAoQZZcqndYcD_oNCYfi-55" vertex="1">
          <mxGeometry y="26" width="180" height="26" as="geometry" />
        </mxCell>
        <mxCell id="YAoQZZcqndYcD_oNCYfi-57" value="+ EndpointTimeout: TimeSpan" style="text;strokeColor=none;fillColor=none;align=left;verticalAlign=top;spacingLeft=4;spacingRight=4;overflow=hidden;rotatable=0;points=[[0,0.5],[1,0.5]];portConstraint=eastwest;whiteSpace=wrap;html=1;" parent="YAoQZZcqndYcD_oNCYfi-55" vertex="1">
          <mxGeometry y="52" width="180" height="26" as="geometry" />
        </mxCell>
        <mxCell id="YAoQZZcqndYcD_oNCYfi-58" value="+ ApplicationFolder: string" style="text;strokeColor=none;fillColor=none;align=left;verticalAlign=top;spacingLeft=4;spacingRight=4;overflow=hidden;rotatable=0;points=[[0,0.5],[1,0.5]];portConstraint=eastwest;whiteSpace=wrap;html=1;" parent="YAoQZZcqndYcD_oNCYfi-55" vertex="1">
          <mxGeometry y="78" width="180" height="26" as="geometry" />
        </mxCell>
        <mxCell id="YAoQZZcqndYcD_oNCYfi-59" value="+ ThumbnailFolder: string" style="text;strokeColor=none;fillColor=none;align=left;verticalAlign=top;spacingLeft=4;spacingRight=4;overflow=hidden;rotatable=0;points=[[0,0.5],[1,0.5]];portConstraint=eastwest;whiteSpace=wrap;html=1;" parent="YAoQZZcqndYcD_oNCYfi-55" vertex="1">
          <mxGeometry y="104" width="180" height="26" as="geometry" />
        </mxCell>
        <mxCell id="YAoQZZcqndYcD_oNCYfi-60" value="+ PresentationFile: string" style="text;strokeColor=none;fillColor=none;align=left;verticalAlign=top;spacingLeft=4;spacingRight=4;overflow=hidden;rotatable=0;points=[[0,0.5],[1,0.5]];portConstraint=eastwest;whiteSpace=wrap;html=1;" parent="YAoQZZcqndYcD_oNCYfi-55" vertex="1">
          <mxGeometry y="130" width="180" height="26" as="geometry" />
        </mxCell>
        <mxCell id="YAoQZZcqndYcD_oNCYfi-62" value="ConfigManager" style="swimlane;fontStyle=1;align=center;verticalAlign=top;childLayout=stackLayout;horizontal=1;startSize=26;horizontalStack=0;resizeParent=1;resizeParentMax=0;resizeLast=0;collapsible=1;marginBottom=0;whiteSpace=wrap;html=1;" parent="1" vertex="1">
          <mxGeometry x="950" y="445" width="160" height="60" as="geometry" />
        </mxCell>
        <mxCell id="YAoQZZcqndYcD_oNCYfi-64" value="" style="line;strokeWidth=1;fillColor=none;align=left;verticalAlign=middle;spacingTop=-1;spacingLeft=3;spacingRight=3;rotatable=0;labelPosition=right;points=[];portConstraint=eastwest;strokeColor=inherit;" parent="YAoQZZcqndYcD_oNCYfi-62" vertex="1">
          <mxGeometry y="26" width="160" height="8" as="geometry" />
        </mxCell>
        <mxCell id="YAoQZZcqndYcD_oNCYfi-65" value="+ LoadFromFile(): Config" style="text;strokeColor=none;fillColor=none;align=left;verticalAlign=top;spacingLeft=4;spacingRight=4;overflow=hidden;rotatable=0;points=[[0,0.5],[1,0.5]];portConstraint=eastwest;whiteSpace=wrap;html=1;" parent="YAoQZZcqndYcD_oNCYfi-62" vertex="1">
          <mxGeometry y="34" width="160" height="26" as="geometry" />
        </mxCell>
        <mxCell id="YAoQZZcqndYcD_oNCYfi-66" value="1" style="endArrow=open;html=1;endSize=12;startArrow=diamondThin;startSize=14;startFill=1;edgeStyle=orthogonalEdgeStyle;align=left;verticalAlign=bottom;rounded=0;entryX=0.003;entryY=0.095;entryDx=0;entryDy=0;exitX=1;exitY=0.5;exitDx=0;exitDy=0;entryPerimeter=0;" parent="1" source="YAoQZZcqndYcD_oNCYfi-65" target="YAoQZZcqndYcD_oNCYfi-55" edge="1">
          <mxGeometry x="-1" y="3" relative="1" as="geometry">
            <mxPoint x="1260" y="284" as="sourcePoint" />
            <mxPoint x="1160" y="285" as="targetPoint" />
          </mxGeometry>
        </mxCell>
        <mxCell id="YAoQZZcqndYcD_oNCYfi-21" value="PresentationFileRepository" style="swimlane;fontStyle=1;align=center;verticalAlign=top;childLayout=stackLayout;horizontal=1;startSize=26;horizontalStack=0;resizeParent=1;resizeParentMax=0;resizeLast=0;collapsible=1;marginBottom=0;whiteSpace=wrap;html=1;" parent="1" vertex="1">
          <mxGeometry x="-50" y="282" width="260" height="86" as="geometry" />
        </mxCell>
        <mxCell id="YAoQZZcqndYcD_oNCYfi-22" value="+ field: type" style="text;strokeColor=none;fillColor=none;align=left;verticalAlign=top;spacingLeft=4;spacingRight=4;overflow=hidden;rotatable=0;points=[[0,0.5],[1,0.5]];portConstraint=eastwest;whiteSpace=wrap;html=1;" parent="YAoQZZcqndYcD_oNCYfi-21" vertex="1">
          <mxGeometry y="26" width="260" height="26" as="geometry" />
        </mxCell>
        <mxCell id="YAoQZZcqndYcD_oNCYfi-23" value="" style="line;strokeWidth=1;fillColor=none;align=left;verticalAlign=middle;spacingTop=-1;spacingLeft=3;spacingRight=3;rotatable=0;labelPosition=right;points=[];portConstraint=eastwest;strokeColor=inherit;" parent="YAoQZZcqndYcD_oNCYfi-21" vertex="1">
          <mxGeometry y="52" width="260" height="8" as="geometry" />
        </mxCell>
        <mxCell id="YAoQZZcqndYcD_oNCYfi-24" value="+ &amp;nbsp;LoadAsync():&amp;nbsp; IEnumerable&amp;lt;Presentation&amp;gt;" style="text;strokeColor=none;fillColor=none;align=left;verticalAlign=top;spacingLeft=4;spacingRight=4;overflow=hidden;rotatable=0;points=[[0,0.5],[1,0.5]];portConstraint=eastwest;whiteSpace=wrap;html=1;" parent="YAoQZZcqndYcD_oNCYfi-21" vertex="1">
          <mxGeometry y="60" width="260" height="26" as="geometry" />
        </mxCell>
        <mxCell id="YAoQZZcqndYcD_oNCYfi-69" value="" style="endArrow=block;dashed=1;endFill=0;endSize=12;html=1;rounded=0;exitX=0.5;exitY=0;exitDx=0;exitDy=0;entryX=0.5;entryY=1;entryDx=0;entryDy=0;edgeStyle=orthogonalEdgeStyle;" parent="1" source="YAoQZZcqndYcD_oNCYfi-21" target="YAoQZZcqndYcD_oNCYfi-54" edge="1">
          <mxGeometry width="160" relative="1" as="geometry">
            <mxPoint x="90" y="212" as="sourcePoint" />
            <mxPoint x="250" y="212" as="targetPoint" />
          </mxGeometry>
        </mxCell>
        <mxCell id="YAoQZZcqndYcD_oNCYfi-70" value="" style="endArrow=block;dashed=1;endFill=0;endSize=12;html=1;rounded=0;entryX=0.5;entryY=1;entryDx=0;entryDy=0;exitX=0.5;exitY=0;exitDx=0;exitDy=0;edgeStyle=orthogonalEdgeStyle;" parent="1" source="YAoQZZcqndYcD_oNCYfi-15" target="YAoQZZcqndYcD_oNCYfi-20" edge="1">
          <mxGeometry width="160" relative="1" as="geometry">
            <mxPoint x="220" y="232" as="sourcePoint" />
            <mxPoint x="380" y="232" as="targetPoint" />
          </mxGeometry>
        </mxCell>
        <mxCell id="YAoQZZcqndYcD_oNCYfi-71" value="" style="endArrow=block;dashed=1;endFill=0;endSize=12;html=1;rounded=0;entryX=0.694;entryY=0.952;entryDx=0;entryDy=0;entryPerimeter=0;exitX=0.5;exitY=0;exitDx=0;exitDy=0;edgeStyle=orthogonalEdgeStyle;" parent="1" source="YAoQZZcqndYcD_oNCYfi-44" target="YAoQZZcqndYcD_oNCYfi-20" edge="1">
          <mxGeometry width="160" relative="1" as="geometry">
            <mxPoint x="530" y="242" as="sourcePoint" />
            <mxPoint x="690" y="242" as="targetPoint" />
            <Array as="points">
              <mxPoint x="701" y="232" />
              <mxPoint x="462" y="232" />
            </Array>
          </mxGeometry>
        </mxCell>
        <mxCell id="YAoQZZcqndYcD_oNCYfi-72" value="" style="endArrow=block;dashed=1;endFill=0;endSize=12;html=1;rounded=0;exitX=0.75;exitY=0;exitDx=0;exitDy=0;entryX=0.25;entryY=1;entryDx=0;entryDy=0;edgeStyle=orthogonalEdgeStyle;" parent="1" source="YAoQZZcqndYcD_oNCYfi-21" target="YAoQZZcqndYcD_oNCYfi-20" edge="1">
          <mxGeometry width="160" relative="1" as="geometry">
            <mxPoint x="170" y="262" as="sourcePoint" />
            <mxPoint x="330" y="262" as="targetPoint" />
            <Array as="points">
              <mxPoint x="165" y="182" />
              <mxPoint x="378" y="182" />
            </Array>
          </mxGeometry>
        </mxCell>
        <mxCell id="YAoQZZcqndYcD_oNCYfi-78" value="Views" style="verticalAlign=top;align=left;spacingTop=8;spacingLeft=2;spacingRight=12;shape=cube;size=10;direction=south;fontStyle=4;html=1;whiteSpace=wrap;" parent="1" vertex="1">
          <mxGeometry x="-90" y="-680" width="1600" height="280" as="geometry" />
        </mxCell>
        <mxCell id="YAoQZZcqndYcD_oNCYfi-80" value="MainView" style="swimlane;fontStyle=1;align=center;verticalAlign=top;childLayout=stackLayout;horizontal=1;startSize=26;horizontalStack=0;resizeParent=1;resizeParentMax=0;resizeLast=0;collapsible=1;marginBottom=0;whiteSpace=wrap;html=1;" parent="1" vertex="1">
          <mxGeometry x="455" y="-480" width="160" height="34" as="geometry" />
        </mxCell>
        <mxCell id="YAoQZZcqndYcD_oNCYfi-82" value="" style="line;strokeWidth=1;fillColor=none;align=left;verticalAlign=middle;spacingTop=-1;spacingLeft=3;spacingRight=3;rotatable=0;labelPosition=right;points=[];portConstraint=eastwest;strokeColor=inherit;" parent="YAoQZZcqndYcD_oNCYfi-80" vertex="1">
          <mxGeometry y="26" width="160" height="8" as="geometry" />
        </mxCell>
        <mxCell id="YAoQZZcqndYcD_oNCYfi-84" value="PresentationListView" style="swimlane;fontStyle=1;align=center;verticalAlign=top;childLayout=stackLayout;horizontal=1;startSize=26;horizontalStack=0;resizeParent=1;resizeParentMax=0;resizeLast=0;collapsible=1;marginBottom=0;whiteSpace=wrap;html=1;" parent="1" vertex="1">
          <mxGeometry x="140" y="-480" width="160" height="34" as="geometry" />
        </mxCell>
        <mxCell id="YAoQZZcqndYcD_oNCYfi-88" value="PresentationListItemView" style="swimlane;fontStyle=1;align=center;verticalAlign=top;childLayout=stackLayout;horizontal=1;startSize=26;horizontalStack=0;resizeParent=1;resizeParentMax=0;resizeLast=0;collapsible=1;marginBottom=0;whiteSpace=wrap;html=1;" parent="1" vertex="1">
          <mxGeometry x="-70" y="-480" width="160" height="34" as="geometry" />
        </mxCell>
        <mxCell id="YAoQZZcqndYcD_oNCYfi-90" value="" style="line;strokeWidth=1;fillColor=none;align=left;verticalAlign=middle;spacingTop=-1;spacingLeft=3;spacingRight=3;rotatable=0;labelPosition=right;points=[];portConstraint=eastwest;strokeColor=inherit;" parent="YAoQZZcqndYcD_oNCYfi-88" vertex="1">
          <mxGeometry y="26" width="160" height="8" as="geometry" />
        </mxCell>
        <mxCell id="YAoQZZcqndYcD_oNCYfi-93" value="StatusBar" style="swimlane;fontStyle=1;align=center;verticalAlign=top;childLayout=stackLayout;horizontal=1;startSize=26;horizontalStack=0;resizeParent=1;resizeParentMax=0;resizeLast=0;collapsible=1;marginBottom=0;whiteSpace=wrap;html=1;" parent="1" vertex="1">
          <mxGeometry x="370" y="-584" width="160" height="34" as="geometry" />
        </mxCell>
        <mxCell id="YAoQZZcqndYcD_oNCYfi-94" value="" style="line;strokeWidth=1;fillColor=none;align=left;verticalAlign=middle;spacingTop=-1;spacingLeft=3;spacingRight=3;rotatable=0;labelPosition=right;points=[];portConstraint=eastwest;strokeColor=inherit;" parent="YAoQZZcqndYcD_oNCYfi-93" vertex="1">
          <mxGeometry y="26" width="160" height="8" as="geometry" />
        </mxCell>
        <mxCell id="pSEVeU6o9NAwRIeH02Zx-4" value="" style="endArrow=block;endFill=1;html=1;align=left;verticalAlign=top;rounded=0;exitX=0.5;exitY=1;exitDx=0;exitDy=0;entryX=0.5;entryY=0;entryDx=0;entryDy=0;" edge="1" parent="1" source="YAoQZZcqndYcD_oNCYfi-80" target="pSEVeU6o9NAwRIeH02Zx-16">
          <mxGeometry x="-1" relative="1" as="geometry">
            <mxPoint x="470" y="-690" as="sourcePoint" />
            <mxPoint x="630" y="-690" as="targetPoint" />
          </mxGeometry>
        </mxCell>
        <mxCell id="pSEVeU6o9NAwRIeH02Zx-5" value="1" style="edgeLabel;resizable=0;html=1;align=left;verticalAlign=bottom;" connectable="0" vertex="1" parent="pSEVeU6o9NAwRIeH02Zx-4">
          <mxGeometry x="-1" relative="1" as="geometry" />
        </mxCell>
        <mxCell id="pSEVeU6o9NAwRIeH02Zx-9" value="" style="endArrow=block;endFill=1;html=1;edgeStyle=orthogonalEdgeStyle;align=left;verticalAlign=top;rounded=0;exitX=0.5;exitY=1;exitDx=0;exitDy=0;entryX=0.5;entryY=0;entryDx=0;entryDy=0;" edge="1" parent="1" source="YAoQZZcqndYcD_oNCYfi-84" target="pSEVeU6o9NAwRIeH02Zx-25">
          <mxGeometry x="-1" relative="1" as="geometry">
            <mxPoint x="-60" y="-240" as="sourcePoint" />
            <mxPoint x="100" y="-240" as="targetPoint" />
          </mxGeometry>
        </mxCell>
        <mxCell id="pSEVeU6o9NAwRIeH02Zx-10" value="1" style="edgeLabel;resizable=0;html=1;align=left;verticalAlign=bottom;" connectable="0" vertex="1" parent="pSEVeU6o9NAwRIeH02Zx-9">
          <mxGeometry x="-1" relative="1" as="geometry" />
        </mxCell>
        <mxCell id="pSEVeU6o9NAwRIeH02Zx-11" value="PresentationDetailView" style="swimlane;fontStyle=1;align=center;verticalAlign=top;childLayout=stackLayout;horizontal=1;startSize=26;horizontalStack=0;resizeParent=1;resizeParentMax=0;resizeLast=0;collapsible=1;marginBottom=0;whiteSpace=wrap;html=1;" vertex="1" parent="1">
          <mxGeometry x="715" y="-480" width="160" height="34" as="geometry" />
        </mxCell>
        <mxCell id="pSEVeU6o9NAwRIeH02Zx-12" value="name" style="endArrow=block;endFill=1;html=1;edgeStyle=orthogonalEdgeStyle;align=left;verticalAlign=top;rounded=0;exitX=0.5;exitY=1;exitDx=0;exitDy=0;entryX=0.33;entryY=-0.005;entryDx=0;entryDy=0;entryPerimeter=0;" edge="1" parent="1" source="pSEVeU6o9NAwRIeH02Zx-11" target="pSEVeU6o9NAwRIeH02Zx-32">
          <mxGeometry x="-1" relative="1" as="geometry">
            <mxPoint x="640" y="-320" as="sourcePoint" />
            <mxPoint x="795" y="-270" as="targetPoint" />
          </mxGeometry>
        </mxCell>
        <mxCell id="pSEVeU6o9NAwRIeH02Zx-13" value="1" style="edgeLabel;resizable=0;html=1;align=left;verticalAlign=bottom;" connectable="0" vertex="1" parent="pSEVeU6o9NAwRIeH02Zx-12">
          <mxGeometry x="-1" relative="1" as="geometry" />
        </mxCell>
        <mxCell id="pSEVeU6o9NAwRIeH02Zx-15" value="1" style="endArrow=open;html=1;endSize=12;startArrow=diamondThin;startSize=14;startFill=1;edgeStyle=orthogonalEdgeStyle;align=left;verticalAlign=bottom;rounded=0;exitX=0;exitY=0.5;exitDx=0;exitDy=0;entryX=1;entryY=0.5;entryDx=0;entryDy=0;" edge="1" parent="1" source="YAoQZZcqndYcD_oNCYfi-84" target="YAoQZZcqndYcD_oNCYfi-88">
          <mxGeometry x="-1" y="3" relative="1" as="geometry">
            <mxPoint x="100" y="-550" as="sourcePoint" />
            <mxPoint x="260" y="-550" as="targetPoint" />
          </mxGeometry>
        </mxCell>
        <mxCell id="YAoQZZcqndYcD_oNCYfi-73" value="1" style="endArrow=open;html=1;endSize=12;startArrow=diamondThin;startSize=14;startFill=1;edgeStyle=orthogonalEdgeStyle;align=left;verticalAlign=bottom;rounded=0;exitX=0;exitY=0.5;exitDx=0;exitDy=0;entryX=0.508;entryY=1.031;entryDx=0;entryDy=0;entryPerimeter=0;" parent="1" source="YAoQZZcqndYcD_oNCYfi-45" target="YAoQZZcqndYcD_oNCYfi-18" edge="1">
          <mxGeometry x="-1" y="3" relative="1" as="geometry">
            <mxPoint x="410" y="452" as="sourcePoint" />
            <mxPoint x="250" y="452" as="targetPoint" />
          </mxGeometry>
        </mxCell>
        <mxCell id="YAoQZZcqndYcD_oNCYfi-74" value="1" style="endArrow=open;html=1;endSize=12;startArrow=diamondThin;startSize=14;startFill=1;edgeStyle=orthogonalEdgeStyle;align=left;verticalAlign=bottom;rounded=0;exitX=0;exitY=0.5;exitDx=0;exitDy=0;entryX=0.473;entryY=1;entryDx=0;entryDy=0;entryPerimeter=0;" parent="1" source="YAoQZZcqndYcD_oNCYfi-51" target="YAoQZZcqndYcD_oNCYfi-24" edge="1">
          <mxGeometry x="-1" y="3" relative="1" as="geometry">
            <mxPoint x="280" y="492" as="sourcePoint" />
            <mxPoint x="120" y="492" as="targetPoint" />
          </mxGeometry>
        </mxCell>
        <mxCell id="YAoQZZcqndYcD_oNCYfi-41" value="1" style="endArrow=open;html=1;endSize=12;startArrow=diamondThin;startSize=14;startFill=1;edgeStyle=orthogonalEdgeStyle;align=left;verticalAlign=bottom;rounded=0;entryX=-0.015;entryY=0.149;entryDx=0;entryDy=0;exitX=1;exitY=0.5;exitDx=0;exitDy=0;entryPerimeter=0;" parent="1" source="YAoQZZcqndYcD_oNCYfi-29" target="YAoQZZcqndYcD_oNCYfi-33" edge="1">
          <mxGeometry x="-1" y="3" relative="1" as="geometry">
            <mxPoint x="1100" y="271" as="sourcePoint" />
            <mxPoint x="1187" y="270" as="targetPoint" />
          </mxGeometry>
        </mxCell>
        <mxCell id="YAoQZZcqndYcD_oNCYfi-40" value="1" style="endArrow=open;html=1;endSize=12;startArrow=diamondThin;startSize=14;startFill=1;edgeStyle=orthogonalEdgeStyle;align=left;verticalAlign=bottom;rounded=0;entryX=0;entryY=0.156;entryDx=0;entryDy=0;exitX=1;exitY=0.5;exitDx=0;exitDy=0;entryPerimeter=0;" parent="1" source="YAoQZZcqndYcD_oNCYfi-32" target="YAoQZZcqndYcD_oNCYfi-34" edge="1">
          <mxGeometry x="-1" y="3" relative="1" as="geometry">
            <mxPoint x="1250" y="330" as="sourcePoint" />
            <mxPoint x="1090" y="330" as="targetPoint" />
          </mxGeometry>
        </mxCell>
        <mxCell id="pSEVeU6o9NAwRIeH02Zx-16" value="MainViewModel" style="swimlane;fontStyle=1;align=center;verticalAlign=top;childLayout=stackLayout;horizontal=1;startSize=26;horizontalStack=0;resizeParent=1;resizeParentMax=0;resizeLast=0;collapsible=1;marginBottom=0;whiteSpace=wrap;html=1;" vertex="1" parent="1">
          <mxGeometry x="470" y="-270" width="130" height="34" as="geometry" />
        </mxCell>
        <mxCell id="pSEVeU6o9NAwRIeH02Zx-17" value="" style="line;strokeWidth=1;fillColor=none;align=left;verticalAlign=middle;spacingTop=-1;spacingLeft=3;spacingRight=3;rotatable=0;labelPosition=right;points=[];portConstraint=eastwest;strokeColor=inherit;" vertex="1" parent="pSEVeU6o9NAwRIeH02Zx-16">
          <mxGeometry y="26" width="130" height="8" as="geometry" />
        </mxCell>
        <mxCell id="pSEVeU6o9NAwRIeH02Zx-20" value="1" style="endArrow=open;html=1;endSize=12;startArrow=diamondThin;startSize=14;startFill=1;edgeStyle=orthogonalEdgeStyle;align=left;verticalAlign=bottom;rounded=0;exitX=0;exitY=0.5;exitDx=0;exitDy=0;entryX=0.997;entryY=0.105;entryDx=0;entryDy=0;entryPerimeter=0;" edge="1" parent="1" source="pSEVeU6o9NAwRIeH02Zx-16" target="pSEVeU6o9NAwRIeH02Zx-25">
          <mxGeometry x="-1" y="3" relative="1" as="geometry">
            <mxPoint x="280" y="-130" as="sourcePoint" />
            <mxPoint x="356" y="-253" as="targetPoint" />
          </mxGeometry>
        </mxCell>
        <mxCell id="pSEVeU6o9NAwRIeH02Zx-21" value="1" style="endArrow=open;html=1;endSize=12;startArrow=diamondThin;startSize=14;startFill=1;edgeStyle=orthogonalEdgeStyle;align=left;verticalAlign=bottom;rounded=0;exitX=1;exitY=0.5;exitDx=0;exitDy=0;entryX=0.006;entryY=0.183;entryDx=0;entryDy=0;entryPerimeter=0;" edge="1" parent="1" source="pSEVeU6o9NAwRIeH02Zx-16" target="pSEVeU6o9NAwRIeH02Zx-32">
          <mxGeometry x="-1" y="3" relative="1" as="geometry">
            <mxPoint x="650" y="-180" as="sourcePoint" />
            <mxPoint x="675" y="-253" as="targetPoint" />
          </mxGeometry>
        </mxCell>
        <mxCell id="pSEVeU6o9NAwRIeH02Zx-22" value="1" style="endArrow=open;html=1;endSize=12;startArrow=diamondThin;startSize=14;startFill=1;edgeStyle=orthogonalEdgeStyle;align=left;verticalAlign=bottom;rounded=0;exitX=0.462;exitY=1.009;exitDx=0;exitDy=0;entryX=0.75;entryY=0;entryDx=0;entryDy=0;exitPerimeter=0;" edge="1" parent="1" source="pSEVeU6o9NAwRIeH02Zx-29" target="YAoQZZcqndYcD_oNCYfi-44">
          <mxGeometry x="-1" y="3" relative="1" as="geometry">
            <mxPoint x="230" y="-180" as="sourcePoint" />
            <mxPoint x="390" y="-180" as="targetPoint" />
            <Array as="points">
              <mxPoint x="207" y="-70" />
              <mxPoint x="772" y="-70" />
            </Array>
          </mxGeometry>
        </mxCell>
        <mxCell id="pSEVeU6o9NAwRIeH02Zx-25" value="PresentationListViewModel" style="swimlane;fontStyle=1;align=center;verticalAlign=top;childLayout=stackLayout;horizontal=1;startSize=26;horizontalStack=0;resizeParent=1;resizeParentMax=0;resizeLast=0;collapsible=1;marginBottom=0;whiteSpace=wrap;html=1;" vertex="1" parent="1">
          <mxGeometry x="49.5" y="-270" width="341" height="164" as="geometry" />
        </mxCell>
        <mxCell id="pSEVeU6o9NAwRIeH02Zx-26" value="+&amp;nbsp;&lt;span style=&quot;text-align: center;&quot;&gt;PresentationFal&lt;/span&gt;&lt;span style=&quot;color: light-dark(rgb(0, 0, 0), rgb(255, 255, 255)); text-align: center; background-color: transparent;&quot;&gt;lbackRepository&lt;/span&gt;:&amp;nbsp;&lt;span style=&quot;text-align: center;&quot;&gt;IPresentationReader&lt;/span&gt;" style="text;strokeColor=none;fillColor=none;align=left;verticalAlign=top;spacingLeft=4;spacingRight=4;overflow=hidden;rotatable=0;points=[[0,0.5],[1,0.5]];portConstraint=eastwest;whiteSpace=wrap;html=1;" vertex="1" parent="pSEVeU6o9NAwRIeH02Zx-25">
          <mxGeometry y="26" width="341" height="26" as="geometry" />
        </mxCell>
        <mxCell id="pSEVeU6o9NAwRIeH02Zx-30" value="&lt;div style=&quot;text-align: center;&quot;&gt;&lt;span style=&quot;background-color: transparent; color: light-dark(rgb(0, 0, 0), rgb(255, 255, 255));&quot;&gt;+ Presentations&lt;/span&gt;&lt;span style=&quot;background-color: transparent; color: light-dark(rgb(0, 0, 0), rgb(255, 255, 255));&quot;&gt;: &lt;/span&gt;&lt;span style=&quot;background-color: transparent;&quot;&gt;ObservableCollection&amp;lt;Presentation&amp;gt;&lt;/span&gt;&lt;/div&gt;" style="text;strokeColor=none;fillColor=none;align=left;verticalAlign=top;spacingLeft=4;spacingRight=4;overflow=hidden;rotatable=0;points=[[0,0.5],[1,0.5]];portConstraint=eastwest;whiteSpace=wrap;html=1;" vertex="1" parent="pSEVeU6o9NAwRIeH02Zx-25">
          <mxGeometry y="52" width="341" height="26" as="geometry" />
        </mxCell>
        <mxCell id="pSEVeU6o9NAwRIeH02Zx-31" value="&lt;div style=&quot;text-align: center;&quot;&gt;&lt;span style=&quot;background-color: transparent; color: light-dark(rgb(0, 0, 0), rgb(255, 255, 255));&quot;&gt;+ SelectedPresentation&lt;/span&gt;&lt;span style=&quot;background-color: transparent; color: light-dark(rgb(0, 0, 0), rgb(255, 255, 255));&quot;&gt;:&amp;nbsp;&lt;/span&gt;&lt;span style=&quot;background-color: transparent; color: light-dark(rgb(0, 0, 0), rgb(255, 255, 255)); text-align: center;&quot;&gt;Presentation&lt;/span&gt;&lt;/div&gt;" style="text;strokeColor=none;fillColor=none;align=left;verticalAlign=top;spacingLeft=4;spacingRight=4;overflow=hidden;rotatable=0;points=[[0,0.5],[1,0.5]];portConstraint=eastwest;whiteSpace=wrap;html=1;" vertex="1" parent="pSEVeU6o9NAwRIeH02Zx-25">
          <mxGeometry y="78" width="341" height="26" as="geometry" />
        </mxCell>
        <mxCell id="pSEVeU6o9NAwRIeH02Zx-27" value="" style="line;strokeWidth=1;fillColor=none;align=left;verticalAlign=middle;spacingTop=-1;spacingLeft=3;spacingRight=3;rotatable=0;labelPosition=right;points=[];portConstraint=eastwest;strokeColor=inherit;" vertex="1" parent="pSEVeU6o9NAwRIeH02Zx-25">
          <mxGeometry y="104" width="341" height="8" as="geometry" />
        </mxCell>
        <mxCell id="pSEVeU6o9NAwRIeH02Zx-28" value="+ InitializeAsync(): Task" style="text;strokeColor=none;fillColor=none;align=left;verticalAlign=top;spacingLeft=4;spacingRight=4;overflow=hidden;rotatable=0;points=[[0,0.5],[1,0.5]];portConstraint=eastwest;whiteSpace=wrap;html=1;" vertex="1" parent="pSEVeU6o9NAwRIeH02Zx-25">
          <mxGeometry y="112" width="341" height="26" as="geometry" />
        </mxCell>
        <mxCell id="pSEVeU6o9NAwRIeH02Zx-29" value="+ ShowPresentationDetailsAsync(): Task" style="text;strokeColor=none;fillColor=none;align=left;verticalAlign=top;spacingLeft=4;spacingRight=4;overflow=hidden;rotatable=0;points=[[0,0.5],[1,0.5]];portConstraint=eastwest;whiteSpace=wrap;html=1;" vertex="1" parent="pSEVeU6o9NAwRIeH02Zx-25">
          <mxGeometry y="138" width="341" height="26" as="geometry" />
        </mxCell>
        <mxCell id="pSEVeU6o9NAwRIeH02Zx-32" value="PresentationDetailViewModel" style="swimlane;fontStyle=1;align=center;verticalAlign=top;childLayout=stackLayout;horizontal=1;startSize=26;horizontalStack=0;resizeParent=1;resizeParentMax=0;resizeLast=0;collapsible=1;marginBottom=0;whiteSpace=wrap;html=1;" vertex="1" parent="1">
          <mxGeometry x="683" y="-269" width="341" height="86" as="geometry" />
        </mxCell>
        <mxCell id="pSEVeU6o9NAwRIeH02Zx-35" value="&lt;div style=&quot;text-align: center;&quot;&gt;&lt;span style=&quot;background-color: transparent; color: light-dark(rgb(0, 0, 0), rgb(255, 255, 255));&quot;&gt;+ Presentation&lt;/span&gt;&lt;span style=&quot;background-color: transparent; color: light-dark(rgb(0, 0, 0), rgb(255, 255, 255));&quot;&gt;:&amp;nbsp;&lt;/span&gt;&lt;span style=&quot;background-color: transparent; color: light-dark(rgb(0, 0, 0), rgb(255, 255, 255)); text-align: center;&quot;&gt;Presentation&lt;/span&gt;&lt;/div&gt;" style="text;strokeColor=none;fillColor=none;align=left;verticalAlign=top;spacingLeft=4;spacingRight=4;overflow=hidden;rotatable=0;points=[[0,0.5],[1,0.5]];portConstraint=eastwest;whiteSpace=wrap;html=1;" vertex="1" parent="pSEVeU6o9NAwRIeH02Zx-32">
          <mxGeometry y="26" width="341" height="26" as="geometry" />
        </mxCell>
        <mxCell id="pSEVeU6o9NAwRIeH02Zx-36" value="" style="line;strokeWidth=1;fillColor=none;align=left;verticalAlign=middle;spacingTop=-1;spacingLeft=3;spacingRight=3;rotatable=0;labelPosition=right;points=[];portConstraint=eastwest;strokeColor=inherit;" vertex="1" parent="pSEVeU6o9NAwRIeH02Zx-32">
          <mxGeometry y="52" width="341" height="8" as="geometry" />
        </mxCell>
        <mxCell id="pSEVeU6o9NAwRIeH02Zx-38" value="+ ShowPresentationListAsync(): Task" style="text;strokeColor=none;fillColor=none;align=left;verticalAlign=top;spacingLeft=4;spacingRight=4;overflow=hidden;rotatable=0;points=[[0,0.5],[1,0.5]];portConstraint=eastwest;whiteSpace=wrap;html=1;" vertex="1" parent="pSEVeU6o9NAwRIeH02Zx-32">
          <mxGeometry y="60" width="341" height="26" as="geometry" />
        </mxCell>
      </root>
    </mxGraphModel>
  </diagram>
  <diagram id="tC5rry1ioabIpzch8Isv" name="UI">
    <mxGraphModel dx="1213" dy="1812" grid="1" gridSize="10" guides="1" tooltips="1" connect="1" arrows="1" fold="1" page="1" pageScale="1" pageWidth="827" pageHeight="1169" math="0" shadow="0">
      <root>
        <mxCell id="0" />
        <mxCell id="1" parent="0" />
        <mxCell id="aL1lSv-y4cXFm9pxciw9-1" value="" style="verticalLabelPosition=bottom;verticalAlign=top;html=1;shape=mxgraph.basic.rect;fillColor2=none;strokeWidth=1;size=20;indent=5;" parent="1" vertex="1">
          <mxGeometry x="132" y="-1010" width="560" height="410" as="geometry" />
        </mxCell>
        <mxCell id="aL1lSv-y4cXFm9pxciw9-6" value="" style="group" parent="1" vertex="1" connectable="0">
          <mxGeometry x="206" y="-918" width="120" height="90" as="geometry" />
        </mxCell>
        <mxCell id="aL1lSv-y4cXFm9pxciw9-2" value="&lt;b&gt;Title&lt;br&gt;&lt;/b&gt;&lt;div style=&quot;&quot;&gt;&lt;b&gt;&lt;font style=&quot;font-size: 10px;&quot;&gt;Author&lt;/font&gt;&lt;/b&gt;&lt;/div&gt;" style="verticalLabelPosition=bottom;verticalAlign=top;html=1;shape=mxgraph.basic.rect;fillColor2=none;strokeWidth=1;size=20;indent=5;align=left;" parent="aL1lSv-y4cXFm9pxciw9-6" vertex="1">
          <mxGeometry width="120" height="90" as="geometry" />
        </mxCell>
        <mxCell id="aL1lSv-y4cXFm9pxciw9-4" value="Presentation" style="text;html=1;align=center;verticalAlign=middle;whiteSpace=wrap;rounded=0;" parent="aL1lSv-y4cXFm9pxciw9-6" vertex="1">
          <mxGeometry x="30" y="30" width="60" height="30" as="geometry" />
        </mxCell>
        <mxCell id="aL1lSv-y4cXFm9pxciw9-7" value="" style="group" parent="1" vertex="1" connectable="0">
          <mxGeometry x="356" y="-918" width="120" height="90" as="geometry" />
        </mxCell>
        <mxCell id="aL1lSv-y4cXFm9pxciw9-8" value="&lt;b&gt;Title&lt;br&gt;&lt;/b&gt;&lt;div style=&quot;&quot;&gt;&lt;b&gt;&lt;font style=&quot;font-size: 10px;&quot;&gt;Author&lt;/font&gt;&lt;/b&gt;&lt;/div&gt;" style="verticalLabelPosition=bottom;verticalAlign=top;html=1;shape=mxgraph.basic.rect;fillColor2=none;strokeWidth=1;size=20;indent=5;align=left;" parent="aL1lSv-y4cXFm9pxciw9-7" vertex="1">
          <mxGeometry width="120" height="90" as="geometry" />
        </mxCell>
        <mxCell id="aL1lSv-y4cXFm9pxciw9-9" value="Presentation" style="text;html=1;align=center;verticalAlign=middle;whiteSpace=wrap;rounded=0;" parent="aL1lSv-y4cXFm9pxciw9-7" vertex="1">
          <mxGeometry x="30" y="30" width="60" height="30" as="geometry" />
        </mxCell>
        <mxCell id="aL1lSv-y4cXFm9pxciw9-11" value="" style="group" parent="1" vertex="1" connectable="0">
          <mxGeometry x="506" y="-918" width="120" height="90" as="geometry" />
        </mxCell>
        <mxCell id="aL1lSv-y4cXFm9pxciw9-12" value="&lt;b&gt;Title&lt;br&gt;&lt;/b&gt;&lt;div style=&quot;&quot;&gt;&lt;b&gt;&lt;font style=&quot;font-size: 10px;&quot;&gt;Author&lt;/font&gt;&lt;/b&gt;&lt;/div&gt;" style="verticalLabelPosition=bottom;verticalAlign=top;html=1;shape=mxgraph.basic.rect;fillColor2=none;strokeWidth=1;size=20;indent=5;align=left;" parent="aL1lSv-y4cXFm9pxciw9-11" vertex="1">
          <mxGeometry width="120" height="90" as="geometry" />
        </mxCell>
        <mxCell id="aL1lSv-y4cXFm9pxciw9-13" value="Presentation" style="text;html=1;align=center;verticalAlign=middle;whiteSpace=wrap;rounded=0;" parent="aL1lSv-y4cXFm9pxciw9-11" vertex="1">
          <mxGeometry x="30" y="30" width="60" height="30" as="geometry" />
        </mxCell>
        <mxCell id="aL1lSv-y4cXFm9pxciw9-14" value="" style="group" parent="1" vertex="1" connectable="0">
          <mxGeometry x="206" y="-768" width="120" height="90" as="geometry" />
        </mxCell>
        <mxCell id="aL1lSv-y4cXFm9pxciw9-15" value="&lt;b&gt;Title&lt;br&gt;&lt;/b&gt;&lt;div style=&quot;&quot;&gt;&lt;b&gt;&lt;font style=&quot;font-size: 10px;&quot;&gt;Author&lt;/font&gt;&lt;/b&gt;&lt;/div&gt;" style="verticalLabelPosition=bottom;verticalAlign=top;html=1;shape=mxgraph.basic.rect;fillColor2=none;strokeWidth=1;size=20;indent=5;align=left;" parent="aL1lSv-y4cXFm9pxciw9-14" vertex="1">
          <mxGeometry width="120" height="90" as="geometry" />
        </mxCell>
        <mxCell id="aL1lSv-y4cXFm9pxciw9-16" value="Presentation" style="text;html=1;align=center;verticalAlign=middle;whiteSpace=wrap;rounded=0;" parent="aL1lSv-y4cXFm9pxciw9-14" vertex="1">
          <mxGeometry x="30" y="30" width="60" height="30" as="geometry" />
        </mxCell>
        <mxCell id="aL1lSv-y4cXFm9pxciw9-17" value="" style="group" parent="1" vertex="1" connectable="0">
          <mxGeometry x="356" y="-768" width="120" height="90" as="geometry" />
        </mxCell>
        <mxCell id="aL1lSv-y4cXFm9pxciw9-18" value="&lt;b&gt;Title&lt;br&gt;&lt;/b&gt;&lt;div style=&quot;&quot;&gt;&lt;b&gt;&lt;font style=&quot;font-size: 10px;&quot;&gt;Author&lt;/font&gt;&lt;/b&gt;&lt;/div&gt;" style="verticalLabelPosition=bottom;verticalAlign=top;html=1;shape=mxgraph.basic.rect;fillColor2=none;strokeWidth=1;size=20;indent=5;align=left;" parent="aL1lSv-y4cXFm9pxciw9-17" vertex="1">
          <mxGeometry width="120" height="90" as="geometry" />
        </mxCell>
        <mxCell id="aL1lSv-y4cXFm9pxciw9-19" value="Presentation" style="text;html=1;align=center;verticalAlign=middle;whiteSpace=wrap;rounded=0;" parent="aL1lSv-y4cXFm9pxciw9-17" vertex="1">
          <mxGeometry x="15" y="30" width="90" height="30" as="geometry" />
        </mxCell>
        <mxCell id="aL1lSv-y4cXFm9pxciw9-20" value="" style="group" parent="1" vertex="1" connectable="0">
          <mxGeometry x="506" y="-768" width="120" height="90" as="geometry" />
        </mxCell>
        <mxCell id="aL1lSv-y4cXFm9pxciw9-21" value="&lt;b&gt;Title&lt;br&gt;&lt;/b&gt;&lt;div style=&quot;&quot;&gt;&lt;b&gt;&lt;font style=&quot;font-size: 10px;&quot;&gt;Author&lt;/font&gt;&lt;/b&gt;&lt;/div&gt;" style="verticalLabelPosition=bottom;verticalAlign=top;html=1;shape=mxgraph.basic.rect;fillColor2=none;strokeWidth=1;size=20;indent=5;align=left;" parent="aL1lSv-y4cXFm9pxciw9-20" vertex="1">
          <mxGeometry width="120" height="90" as="geometry" />
        </mxCell>
        <mxCell id="aL1lSv-y4cXFm9pxciw9-22" value="Presentation" style="text;html=1;align=center;verticalAlign=middle;whiteSpace=wrap;rounded=0;" parent="aL1lSv-y4cXFm9pxciw9-20" vertex="1">
          <mxGeometry x="30" y="30" width="60" height="30" as="geometry" />
        </mxCell>
        <mxCell id="aL1lSv-y4cXFm9pxciw9-26" value="&lt;b&gt;&lt;font style=&quot;font-size: 13px;&quot;&gt;PresentationListView&lt;/font&gt;&lt;/b&gt;&lt;br&gt;&lt;ol&gt;&lt;li&gt;This control will list all presentations (later on some sort of pagination can be added);&lt;br&gt;&lt;/li&gt;&lt;li&gt;Should be vertically scrollable;&lt;/li&gt;&lt;li&gt;Horizontally the number of presentations in a row needs to adapt to the width;&lt;/li&gt;&lt;/ol&gt;" style="text;html=1;align=left;verticalAlign=middle;whiteSpace=wrap;rounded=0;" parent="1" vertex="1">
          <mxGeometry x="120" y="-1120" width="584" height="80" as="geometry" />
        </mxCell>
        <mxCell id="aL1lSv-y4cXFm9pxciw9-27" value="&lt;b&gt;&lt;font style=&quot;font-size: 13px;&quot;&gt;PresentationListItemView&lt;/font&gt;&lt;/b&gt;&lt;br&gt;&lt;ol&gt;&lt;li&gt;This control displays each presentation in&amp;nbsp;&lt;font style=&quot;font-size: 13px;&quot;&gt;PresentationListView;&lt;br&gt;&lt;/font&gt;&lt;/li&gt;&lt;li&gt;&lt;font style=&quot;font-size: 13px;&quot;&gt;It will show the Title and Author;&lt;/font&gt;&lt;/li&gt;&lt;li&gt;On mouse over a message indicating &quot;click for more details&quot; should appear;&lt;br&gt;&lt;/li&gt;&lt;li&gt;On mouse click the details of the presentation should be displayed.&lt;/li&gt;&lt;/ol&gt;" style="text;html=1;align=left;verticalAlign=middle;whiteSpace=wrap;rounded=0;" parent="1" vertex="1">
          <mxGeometry x="124" y="-570" width="584" height="130" as="geometry" />
        </mxCell>
        <mxCell id="aL1lSv-y4cXFm9pxciw9-28" value="" style="group" parent="1" vertex="1" connectable="0">
          <mxGeometry x="274" y="-442" width="120" height="90" as="geometry" />
        </mxCell>
        <mxCell id="aL1lSv-y4cXFm9pxciw9-29" value="&lt;b&gt;Title&lt;br&gt;&lt;/b&gt;&lt;div style=&quot;&quot;&gt;&lt;b&gt;&lt;font style=&quot;font-size: 10px;&quot;&gt;Author&lt;/font&gt;&lt;/b&gt;&lt;/div&gt;" style="verticalLabelPosition=bottom;verticalAlign=top;html=1;shape=mxgraph.basic.rect;fillColor2=none;strokeWidth=1;size=20;indent=5;align=left;" parent="aL1lSv-y4cXFm9pxciw9-28" vertex="1">
          <mxGeometry width="120" height="90" as="geometry" />
        </mxCell>
        <mxCell id="aL1lSv-y4cXFm9pxciw9-30" value="Presentation" style="text;html=1;align=center;verticalAlign=middle;whiteSpace=wrap;rounded=0;" parent="aL1lSv-y4cXFm9pxciw9-28" vertex="1">
          <mxGeometry x="30" y="30" width="60" height="30" as="geometry" />
        </mxCell>
        <mxCell id="aL1lSv-y4cXFm9pxciw9-31" value="" style="group" parent="1" vertex="1" connectable="0">
          <mxGeometry x="424" y="-442" width="120" height="90" as="geometry" />
        </mxCell>
        <mxCell id="aL1lSv-y4cXFm9pxciw9-32" value="&lt;b&gt;Title&lt;br&gt;&lt;/b&gt;&lt;div style=&quot;&quot;&gt;&lt;b&gt;&lt;font style=&quot;font-size: 10px;&quot;&gt;Author&lt;/font&gt;&lt;/b&gt;&lt;/div&gt;" style="verticalLabelPosition=bottom;verticalAlign=top;html=1;shape=mxgraph.basic.rect;fillColor2=none;strokeWidth=1;size=20;indent=5;align=left;" parent="aL1lSv-y4cXFm9pxciw9-31" vertex="1">
          <mxGeometry width="120" height="90" as="geometry" />
        </mxCell>
        <mxCell id="aL1lSv-y4cXFm9pxciw9-33" value="Click for details" style="text;html=1;align=center;verticalAlign=middle;whiteSpace=wrap;rounded=0;" parent="aL1lSv-y4cXFm9pxciw9-31" vertex="1">
          <mxGeometry x="15" y="30" width="90" height="30" as="geometry" />
        </mxCell>
        <mxCell id="aL1lSv-y4cXFm9pxciw9-34" value="" style="shape=flexArrow;endArrow=classic;html=1;rounded=0;endWidth=9;endSize=6.84;" parent="aL1lSv-y4cXFm9pxciw9-31" edge="1">
          <mxGeometry width="50" height="50" relative="1" as="geometry">
            <mxPoint x="105" y="80" as="sourcePoint" />
            <mxPoint x="85" y="60" as="targetPoint" />
          </mxGeometry>
        </mxCell>
        <mxCell id="aL1lSv-y4cXFm9pxciw9-35" value="" style="verticalLabelPosition=bottom;verticalAlign=top;html=1;shape=mxgraph.basic.rect;fillColor2=none;strokeWidth=1;size=20;indent=5;" parent="1" vertex="1">
          <mxGeometry x="134" y="-151" width="560" height="410" as="geometry" />
        </mxCell>
        <mxCell id="aL1lSv-y4cXFm9pxciw9-45" value="" style="group" parent="1" vertex="1" connectable="0">
          <mxGeometry x="389" y="-53" width="284" height="160" as="geometry" />
        </mxCell>
        <mxCell id="aL1lSv-y4cXFm9pxciw9-46" value="" style="verticalLabelPosition=bottom;verticalAlign=top;html=1;shape=mxgraph.basic.rect;fillColor2=none;strokeWidth=1;size=20;indent=5;align=left;" parent="aL1lSv-y4cXFm9pxciw9-45" vertex="1">
          <mxGeometry width="284" height="160" as="geometry" />
        </mxCell>
        <mxCell id="aL1lSv-y4cXFm9pxciw9-47" value="Thumbnail" style="text;html=1;align=center;verticalAlign=middle;whiteSpace=wrap;rounded=0;" parent="aL1lSv-y4cXFm9pxciw9-45" vertex="1">
          <mxGeometry x="71" y="53.333333333333336" width="142" height="53.333333333333336" as="geometry" />
        </mxCell>
        <mxCell id="aL1lSv-y4cXFm9pxciw9-54" value="&lt;b&gt;&lt;font style=&quot;font-size: 13px;&quot;&gt;PresentationDetailsView&lt;/font&gt;&lt;/b&gt;&lt;br&gt;&lt;ol&gt;&lt;li&gt;This control displays the presentation details (title, privacy, author, date, thumbnail, description);&lt;br&gt;&lt;/li&gt;&lt;li&gt;Should be vertically scrollable;&lt;/li&gt;&lt;li&gt;Fixed at the top and bottom a &quot;Go back&quot; button should be available.&lt;/li&gt;&lt;/ol&gt;" style="text;html=1;align=left;verticalAlign=middle;whiteSpace=wrap;rounded=0;" parent="1" vertex="1">
          <mxGeometry x="122" y="-261" width="584" height="80" as="geometry" />
        </mxCell>
        <mxCell id="aL1lSv-y4cXFm9pxciw9-55" value="&lt;font style=&quot;font-size: 20px;&quot;&gt;&lt;b style=&quot;&quot;&gt;Title&lt;/b&gt;&lt;/font&gt;" style="text;html=1;align=left;verticalAlign=middle;whiteSpace=wrap;rounded=0;" parent="1" vertex="1">
          <mxGeometry x="188" y="-90" width="122" height="30" as="geometry" />
        </mxCell>
        <mxCell id="aL1lSv-y4cXFm9pxciw9-56" value="Author" style="text;html=1;align=left;verticalAlign=middle;whiteSpace=wrap;rounded=0;" parent="1" vertex="1">
          <mxGeometry x="188" y="-53" width="60" height="32" as="geometry" />
        </mxCell>
        <mxCell id="aL1lSv-y4cXFm9pxciw9-57" value="&lt;div style=&quot;text-align: justify;&quot;&gt;&lt;span style=&quot;background-color: transparent; color: light-dark(rgb(0, 0, 0), rgb(255, 255, 255));&quot;&gt;Description&lt;/span&gt;&lt;/div&gt;&lt;div style=&quot;text-align: justify;&quot;&gt;&lt;br&gt;&lt;/div&gt;&lt;span style=&quot;font-family: &amp;quot;Open Sans&amp;quot;, Arial, sans-serif; background-color: rgb(255, 255, 255);&quot;&gt;&lt;div style=&quot;text-align: justify;&quot;&gt;&lt;span style=&quot;background-color: light-dark(rgb(255, 255, 255), rgb(18, 18, 18)); color: light-dark(rgb(0, 0, 0), rgb(255, 255, 255));&quot;&gt;Lorem ipsum dolor sit amet, consectetur adipiscing elit. Nam malesuada, quam et congue volutpat, enim est posuere felis, sit amet vestibulum nisl neque sit amet neque.&lt;/span&gt;&lt;/div&gt;&lt;/span&gt;" style="text;html=1;align=left;verticalAlign=middle;whiteSpace=wrap;rounded=0;" parent="1" vertex="1">
          <mxGeometry x="188" y="51" width="172" height="59" as="geometry" />
        </mxCell>
        <mxCell id="aL1lSv-y4cXFm9pxciw9-58" value="&lt;font style=&quot;font-size: 11px;&quot;&gt;&amp;lt;&lt;span style=&quot;background-color: transparent; color: light-dark(rgb(0, 0, 0), rgb(255, 255, 255));&quot;&gt;&amp;nbsp;Back&lt;/span&gt;&lt;/font&gt;" style="text;html=1;align=left;verticalAlign=middle;whiteSpace=wrap;rounded=0;" parent="1" vertex="1">
          <mxGeometry x="188" y="220" width="60" height="30" as="geometry" />
        </mxCell>
        <mxCell id="d5x9_H2GfDVdp7voGhuA-3" value="&lt;b&gt;&lt;font style=&quot;font-size: 14px;&quot;&gt;Presentations&lt;/font&gt;&lt;/b&gt;" style="text;html=1;align=left;verticalAlign=middle;whiteSpace=wrap;rounded=0;" vertex="1" parent="1">
          <mxGeometry x="206" y="-990" width="84" height="30" as="geometry" />
        </mxCell>
        <mxCell id="d5x9_H2GfDVdp7voGhuA-4" value="Select a presentation" style="text;html=1;align=left;verticalAlign=middle;whiteSpace=wrap;rounded=0;" vertex="1" parent="1">
          <mxGeometry x="206" y="-970" width="134" height="30" as="geometry" />
        </mxCell>
        <mxCell id="d5x9_H2GfDVdp7voGhuA-6" value="&lt;font style=&quot;font-size: 11px;&quot;&gt;&amp;lt;&lt;span style=&quot;background-color: transparent; color: light-dark(rgb(0, 0, 0), rgb(255, 255, 255));&quot;&gt;&amp;nbsp;Back&lt;/span&gt;&lt;/font&gt;" style="text;html=1;align=left;verticalAlign=middle;whiteSpace=wrap;rounded=0;" vertex="1" parent="1">
          <mxGeometry x="188" y="-130" width="60" height="30" as="geometry" />
        </mxCell>
        <mxCell id="d5x9_H2GfDVdp7voGhuA-7" value="Date" style="text;html=1;align=left;verticalAlign=middle;whiteSpace=wrap;rounded=0;" vertex="1" parent="1">
          <mxGeometry x="188" y="-21" width="60" height="32" as="geometry" />
        </mxCell>
      </root>
    </mxGraphModel>
  </diagram>
</mxfile>
